<mxfile host="app.diagrams.net" modified="2021-07-18T10:35:37.830Z" agent="5.0 (Windows NT 10.0; WOW64) AppleWebKit/537.36 (KHTML, like Gecko) coc_coc_browser/96.0.230 Chrome/90.0.4430.230 Safari/537.36" etag="Yx6XnnDNHh3J_FfL1pYP" version="14.7.2" type="github">
  <diagram id="Gxh6t3ivbDPiE40FsZQD" name="Page-1">
    <mxGraphModel dx="1420" dy="779" grid="1" gridSize="10" guides="1" tooltips="1" connect="1" arrows="1" fold="1" page="1" pageScale="1" pageWidth="827" pageHeight="1169" math="0" shadow="0">
      <root>
        <mxCell id="0" />
        <mxCell id="1" parent="0" />
        <mxCell id="tMApT3-68aHgflupxaHZ-1" value="" style="rounded=0;whiteSpace=wrap;html=1;" vertex="1" parent="1">
          <mxGeometry x="300" y="20" width="200" height="50" as="geometry" />
        </mxCell>
        <mxCell id="tMApT3-68aHgflupxaHZ-2" value="" style="rounded=0;whiteSpace=wrap;html=1;" vertex="1" parent="1">
          <mxGeometry x="20" y="140" width="120" height="40" as="geometry" />
        </mxCell>
        <mxCell id="tMApT3-68aHgflupxaHZ-3" value="" style="rounded=0;whiteSpace=wrap;html=1;" vertex="1" parent="1">
          <mxGeometry x="180" y="140" width="120" height="40" as="geometry" />
        </mxCell>
        <mxCell id="tMApT3-68aHgflupxaHZ-4" value="" style="rounded=0;whiteSpace=wrap;html=1;" vertex="1" parent="1">
          <mxGeometry x="340" y="140" width="120" height="40" as="geometry" />
        </mxCell>
        <mxCell id="tMApT3-68aHgflupxaHZ-5" value="" style="rounded=0;whiteSpace=wrap;html=1;" vertex="1" parent="1">
          <mxGeometry x="500" y="140" width="120" height="40" as="geometry" />
        </mxCell>
        <mxCell id="tMApT3-68aHgflupxaHZ-6" value="" style="rounded=0;whiteSpace=wrap;html=1;" vertex="1" parent="1">
          <mxGeometry x="660" y="140" width="120" height="40" as="geometry" />
        </mxCell>
        <mxCell id="tMApT3-68aHgflupxaHZ-8" value="" style="line;strokeWidth=2;html=1;" vertex="1" parent="1">
          <mxGeometry x="90" y="105" width="620" height="10" as="geometry" />
        </mxCell>
        <mxCell id="tMApT3-68aHgflupxaHZ-10" value="" style="line;strokeWidth=2;direction=south;html=1;align=center;verticalAlign=bottom;" vertex="1" parent="1">
          <mxGeometry x="395" y="70" width="10" height="40" as="geometry" />
        </mxCell>
        <mxCell id="tMApT3-68aHgflupxaHZ-13" value="" style="edgeStyle=segmentEdgeStyle;endArrow=classic;html=1;entryX=0.5;entryY=0;entryDx=0;entryDy=0;exitX=1;exitY=0.5;exitDx=0;exitDy=0;exitPerimeter=0;strokeWidth=2;" edge="1" parent="1" source="tMApT3-68aHgflupxaHZ-8" target="tMApT3-68aHgflupxaHZ-6">
          <mxGeometry width="50" height="50" relative="1" as="geometry">
            <mxPoint x="590" y="90" as="sourcePoint" />
            <mxPoint x="640" y="40" as="targetPoint" />
          </mxGeometry>
        </mxCell>
        <mxCell id="tMApT3-68aHgflupxaHZ-14" value="" style="edgeStyle=segmentEdgeStyle;endArrow=classic;html=1;entryX=0.5;entryY=0;entryDx=0;entryDy=0;exitX=0;exitY=0.5;exitDx=0;exitDy=0;exitPerimeter=0;strokeWidth=2;jumpSize=6;endSize=6;spacingTop=0;" edge="1" parent="1" source="tMApT3-68aHgflupxaHZ-8" target="tMApT3-68aHgflupxaHZ-2">
          <mxGeometry width="50" height="50" relative="1" as="geometry">
            <mxPoint x="39.999999999999886" y="110" as="sourcePoint" />
            <mxPoint x="50.000000000000114" y="140" as="targetPoint" />
            <Array as="points">
              <mxPoint x="80" y="110" />
            </Array>
          </mxGeometry>
        </mxCell>
        <mxCell id="tMApT3-68aHgflupxaHZ-17" value="" style="rounded=0;whiteSpace=wrap;html=1;" vertex="1" parent="1">
          <mxGeometry x="40" y="210" width="90" height="40" as="geometry" />
        </mxCell>
        <mxCell id="tMApT3-68aHgflupxaHZ-18" value="" style="rounded=0;whiteSpace=wrap;html=1;" vertex="1" parent="1">
          <mxGeometry x="40" y="290" width="90" height="40" as="geometry" />
        </mxCell>
        <mxCell id="tMApT3-68aHgflupxaHZ-19" value="" style="rounded=0;whiteSpace=wrap;html=1;" vertex="1" parent="1">
          <mxGeometry x="40" y="370" width="90" height="40" as="geometry" />
        </mxCell>
        <mxCell id="tMApT3-68aHgflupxaHZ-20" value="" style="rounded=0;whiteSpace=wrap;html=1;" vertex="1" parent="1">
          <mxGeometry x="40" y="450" width="90" height="40" as="geometry" />
        </mxCell>
        <mxCell id="tMApT3-68aHgflupxaHZ-21" value="" style="line;strokeWidth=2;direction=south;html=1;align=center;verticalAlign=bottom;" vertex="1" parent="1">
          <mxGeometry x="20" y="180" width="10" height="280" as="geometry" />
        </mxCell>
        <mxCell id="tMApT3-68aHgflupxaHZ-22" value="" style="edgeStyle=segmentEdgeStyle;endArrow=classic;html=1;endSize=6;strokeWidth=2;entryX=0;entryY=0.5;entryDx=0;entryDy=0;exitX=1;exitY=0.5;exitDx=0;exitDy=0;exitPerimeter=0;" edge="1" parent="1" source="tMApT3-68aHgflupxaHZ-21" target="tMApT3-68aHgflupxaHZ-20">
          <mxGeometry width="50" height="50" relative="1" as="geometry">
            <mxPoint x="160" y="430" as="sourcePoint" />
            <mxPoint x="210" y="380" as="targetPoint" />
            <Array as="points">
              <mxPoint x="25" y="470" />
            </Array>
          </mxGeometry>
        </mxCell>
        <mxCell id="tMApT3-68aHgflupxaHZ-23" value="" style="endArrow=classic;html=1;endSize=6;strokeWidth=2;entryX=0;entryY=0.5;entryDx=0;entryDy=0;exitX=0.75;exitY=0.5;exitDx=0;exitDy=0;exitPerimeter=0;" edge="1" parent="1" source="tMApT3-68aHgflupxaHZ-21" target="tMApT3-68aHgflupxaHZ-19">
          <mxGeometry width="50" height="50" relative="1" as="geometry">
            <mxPoint x="160" y="430" as="sourcePoint" />
            <mxPoint x="210" y="380" as="targetPoint" />
          </mxGeometry>
        </mxCell>
        <mxCell id="tMApT3-68aHgflupxaHZ-24" value="" style="endArrow=classic;html=1;endSize=6;strokeWidth=2;entryX=0;entryY=0.5;entryDx=0;entryDy=0;exitX=0.75;exitY=0.5;exitDx=0;exitDy=0;exitPerimeter=0;" edge="1" parent="1">
          <mxGeometry width="50" height="50" relative="1" as="geometry">
            <mxPoint x="24.999999999999943" y="309.76" as="sourcePoint" />
            <mxPoint x="40" y="309.76" as="targetPoint" />
          </mxGeometry>
        </mxCell>
        <mxCell id="tMApT3-68aHgflupxaHZ-25" value="" style="endArrow=classic;html=1;endSize=6;strokeWidth=2;entryX=0;entryY=0.5;entryDx=0;entryDy=0;exitX=0.75;exitY=0.5;exitDx=0;exitDy=0;exitPerimeter=0;" edge="1" parent="1">
          <mxGeometry width="50" height="50" relative="1" as="geometry">
            <mxPoint x="24.999999999999943" y="229.76" as="sourcePoint" />
            <mxPoint x="40" y="229.76" as="targetPoint" />
          </mxGeometry>
        </mxCell>
      </root>
    </mxGraphModel>
  </diagram>
</mxfile>
